<mxfile host="app.diagrams.net" modified="2023-07-11T13:34:59.095Z" agent="Mozilla/5.0 (Windows NT 10.0; Win64; x64) AppleWebKit/537.36 (KHTML, like Gecko) Chrome/114.0.0.0 Safari/537.36" etag="qHiVN3U8bgi5y9N77nWa" version="21.6.1" type="github">
  <diagram id="R2lEEEUBdFMjLlhIrx00" name="Page-1">
    <mxGraphModel dx="2600" dy="915" grid="1" gridSize="10" guides="1" tooltips="1" connect="1" arrows="1" fold="1" page="1" pageScale="1" pageWidth="850" pageHeight="1100" math="0" shadow="0" extFonts="Permanent Marker^https://fonts.googleapis.com/css?family=Permanent+Marker">
      <root>
        <mxCell id="0" />
        <mxCell id="1" parent="0" />
        <mxCell id="C-vyLk0tnHw3VtMMgP7b-23" value="Professor" style="shape=table;startSize=30;container=1;collapsible=1;childLayout=tableLayout;fixedRows=1;rowLines=0;fontStyle=1;align=center;resizeLast=1;" parent="1" vertex="1">
          <mxGeometry x="80" y="140" width="250" height="150" as="geometry" />
        </mxCell>
        <mxCell id="C-vyLk0tnHw3VtMMgP7b-24" value="" style="shape=partialRectangle;collapsible=0;dropTarget=0;pointerEvents=0;fillColor=none;points=[[0,0.5],[1,0.5]];portConstraint=eastwest;top=0;left=0;right=0;bottom=1;" parent="C-vyLk0tnHw3VtMMgP7b-23" vertex="1">
          <mxGeometry y="30" width="250" height="30" as="geometry" />
        </mxCell>
        <mxCell id="C-vyLk0tnHw3VtMMgP7b-25" value="PK" style="shape=partialRectangle;overflow=hidden;connectable=0;fillColor=none;top=0;left=0;bottom=0;right=0;fontStyle=1;" parent="C-vyLk0tnHw3VtMMgP7b-24" vertex="1">
          <mxGeometry width="30" height="30" as="geometry">
            <mxRectangle width="30" height="30" as="alternateBounds" />
          </mxGeometry>
        </mxCell>
        <mxCell id="C-vyLk0tnHw3VtMMgP7b-26" value="id" style="shape=partialRectangle;overflow=hidden;connectable=0;fillColor=none;top=0;left=0;bottom=0;right=0;align=left;spacingLeft=6;fontStyle=5;" parent="C-vyLk0tnHw3VtMMgP7b-24" vertex="1">
          <mxGeometry x="30" width="220" height="30" as="geometry">
            <mxRectangle width="220" height="30" as="alternateBounds" />
          </mxGeometry>
        </mxCell>
        <mxCell id="C-vyLk0tnHw3VtMMgP7b-27" value="" style="shape=partialRectangle;collapsible=0;dropTarget=0;pointerEvents=0;fillColor=none;points=[[0,0.5],[1,0.5]];portConstraint=eastwest;top=0;left=0;right=0;bottom=0;" parent="C-vyLk0tnHw3VtMMgP7b-23" vertex="1">
          <mxGeometry y="60" width="250" height="30" as="geometry" />
        </mxCell>
        <mxCell id="C-vyLk0tnHw3VtMMgP7b-28" value="FK" style="shape=partialRectangle;overflow=hidden;connectable=0;fillColor=none;top=0;left=0;bottom=0;right=0;" parent="C-vyLk0tnHw3VtMMgP7b-27" vertex="1">
          <mxGeometry width="30" height="30" as="geometry">
            <mxRectangle width="30" height="30" as="alternateBounds" />
          </mxGeometry>
        </mxCell>
        <mxCell id="C-vyLk0tnHw3VtMMgP7b-29" value="school_id" style="shape=partialRectangle;overflow=hidden;connectable=0;fillColor=none;top=0;left=0;bottom=0;right=0;align=left;spacingLeft=6;" parent="C-vyLk0tnHw3VtMMgP7b-27" vertex="1">
          <mxGeometry x="30" width="220" height="30" as="geometry">
            <mxRectangle width="220" height="30" as="alternateBounds" />
          </mxGeometry>
        </mxCell>
        <mxCell id="u_L2M56FNfiMDBvB7FRl-4" style="edgeStyle=orthogonalEdgeStyle;rounded=0;orthogonalLoop=1;jettySize=auto;html=1;exitX=1;exitY=0.5;exitDx=0;exitDy=0;" edge="1" parent="C-vyLk0tnHw3VtMMgP7b-23" source="C-vyLk0tnHw3VtMMgP7b-24" target="C-vyLk0tnHw3VtMMgP7b-24">
          <mxGeometry relative="1" as="geometry" />
        </mxCell>
        <mxCell id="u_L2M56FNfiMDBvB7FRl-63" style="edgeStyle=orthogonalEdgeStyle;rounded=0;orthogonalLoop=1;jettySize=auto;html=1;endArrow=none;endFill=0;" edge="1" parent="1" source="u_L2M56FNfiMDBvB7FRl-5" target="u_L2M56FNfiMDBvB7FRl-13">
          <mxGeometry relative="1" as="geometry">
            <Array as="points">
              <mxPoint x="830" y="160" />
              <mxPoint x="830" y="490" />
            </Array>
          </mxGeometry>
        </mxCell>
        <mxCell id="u_L2M56FNfiMDBvB7FRl-64" value="Many" style="edgeLabel;html=1;align=center;verticalAlign=middle;resizable=0;points=[];" vertex="1" connectable="0" parent="u_L2M56FNfiMDBvB7FRl-63">
          <mxGeometry x="-0.7233" y="-1" relative="1" as="geometry">
            <mxPoint as="offset" />
          </mxGeometry>
        </mxCell>
        <mxCell id="u_L2M56FNfiMDBvB7FRl-65" value="To" style="edgeLabel;html=1;align=center;verticalAlign=middle;resizable=0;points=[];" vertex="1" connectable="0" parent="u_L2M56FNfiMDBvB7FRl-63">
          <mxGeometry x="-0.2" y="-3" relative="1" as="geometry">
            <mxPoint as="offset" />
          </mxGeometry>
        </mxCell>
        <mxCell id="u_L2M56FNfiMDBvB7FRl-66" value="Many" style="edgeLabel;html=1;align=center;verticalAlign=middle;resizable=0;points=[];" vertex="1" connectable="0" parent="u_L2M56FNfiMDBvB7FRl-63">
          <mxGeometry x="0.6856" y="-1" relative="1" as="geometry">
            <mxPoint as="offset" />
          </mxGeometry>
        </mxCell>
        <mxCell id="u_L2M56FNfiMDBvB7FRl-156" style="edgeStyle=orthogonalEdgeStyle;rounded=0;orthogonalLoop=1;jettySize=auto;html=1;entryX=0.5;entryY=0;entryDx=0;entryDy=0;endArrow=none;endFill=0;" edge="1" parent="1" source="u_L2M56FNfiMDBvB7FRl-5" target="u_L2M56FNfiMDBvB7FRl-122">
          <mxGeometry relative="1" as="geometry">
            <Array as="points">
              <mxPoint x="635" y="10" />
              <mxPoint x="1490" y="10" />
              <mxPoint x="1490" y="300" />
              <mxPoint x="1125" y="300" />
            </Array>
          </mxGeometry>
        </mxCell>
        <mxCell id="u_L2M56FNfiMDBvB7FRl-157" value="Many" style="edgeLabel;html=1;align=center;verticalAlign=middle;resizable=0;points=[];" vertex="1" connectable="0" parent="u_L2M56FNfiMDBvB7FRl-156">
          <mxGeometry x="0.8583" y="-5" relative="1" as="geometry">
            <mxPoint as="offset" />
          </mxGeometry>
        </mxCell>
        <mxCell id="u_L2M56FNfiMDBvB7FRl-158" value="To" style="edgeLabel;html=1;align=center;verticalAlign=middle;resizable=0;points=[];" vertex="1" connectable="0" parent="u_L2M56FNfiMDBvB7FRl-156">
          <mxGeometry x="0.1477" y="-3" relative="1" as="geometry">
            <mxPoint as="offset" />
          </mxGeometry>
        </mxCell>
        <mxCell id="u_L2M56FNfiMDBvB7FRl-159" value="Many" style="edgeLabel;html=1;align=center;verticalAlign=middle;resizable=0;points=[];" vertex="1" connectable="0" parent="u_L2M56FNfiMDBvB7FRl-156">
          <mxGeometry x="-0.976" relative="1" as="geometry">
            <mxPoint as="offset" />
          </mxGeometry>
        </mxCell>
        <mxCell id="u_L2M56FNfiMDBvB7FRl-5" value="Student" style="shape=table;startSize=30;container=1;collapsible=1;childLayout=tableLayout;fixedRows=1;rowLines=0;fontStyle=1;align=center;resizeLast=1;" vertex="1" parent="1">
          <mxGeometry x="510" y="140" width="250" height="170" as="geometry" />
        </mxCell>
        <mxCell id="u_L2M56FNfiMDBvB7FRl-6" value="" style="shape=partialRectangle;collapsible=0;dropTarget=0;pointerEvents=0;fillColor=none;points=[[0,0.5],[1,0.5]];portConstraint=eastwest;top=0;left=0;right=0;bottom=1;" vertex="1" parent="u_L2M56FNfiMDBvB7FRl-5">
          <mxGeometry y="30" width="250" height="30" as="geometry" />
        </mxCell>
        <mxCell id="u_L2M56FNfiMDBvB7FRl-7" value="PK" style="shape=partialRectangle;overflow=hidden;connectable=0;fillColor=none;top=0;left=0;bottom=0;right=0;fontStyle=1;" vertex="1" parent="u_L2M56FNfiMDBvB7FRl-6">
          <mxGeometry width="30" height="30" as="geometry">
            <mxRectangle width="30" height="30" as="alternateBounds" />
          </mxGeometry>
        </mxCell>
        <mxCell id="u_L2M56FNfiMDBvB7FRl-8" value="id" style="shape=partialRectangle;overflow=hidden;connectable=0;fillColor=none;top=0;left=0;bottom=0;right=0;align=left;spacingLeft=6;fontStyle=5;" vertex="1" parent="u_L2M56FNfiMDBvB7FRl-6">
          <mxGeometry x="30" width="220" height="30" as="geometry">
            <mxRectangle width="220" height="30" as="alternateBounds" />
          </mxGeometry>
        </mxCell>
        <mxCell id="u_L2M56FNfiMDBvB7FRl-9" value="" style="shape=partialRectangle;collapsible=0;dropTarget=0;pointerEvents=0;fillColor=none;points=[[0,0.5],[1,0.5]];portConstraint=eastwest;top=0;left=0;right=0;bottom=0;" vertex="1" parent="u_L2M56FNfiMDBvB7FRl-5">
          <mxGeometry y="60" width="250" height="30" as="geometry" />
        </mxCell>
        <mxCell id="u_L2M56FNfiMDBvB7FRl-10" value="FK" style="shape=partialRectangle;overflow=hidden;connectable=0;fillColor=none;top=0;left=0;bottom=0;right=0;" vertex="1" parent="u_L2M56FNfiMDBvB7FRl-9">
          <mxGeometry width="30" height="30" as="geometry">
            <mxRectangle width="30" height="30" as="alternateBounds" />
          </mxGeometry>
        </mxCell>
        <mxCell id="u_L2M56FNfiMDBvB7FRl-11" value="school_id" style="shape=partialRectangle;overflow=hidden;connectable=0;fillColor=none;top=0;left=0;bottom=0;right=0;align=left;spacingLeft=6;" vertex="1" parent="u_L2M56FNfiMDBvB7FRl-9">
          <mxGeometry x="30" width="220" height="30" as="geometry">
            <mxRectangle width="220" height="30" as="alternateBounds" />
          </mxGeometry>
        </mxCell>
        <mxCell id="u_L2M56FNfiMDBvB7FRl-12" style="edgeStyle=orthogonalEdgeStyle;rounded=0;orthogonalLoop=1;jettySize=auto;html=1;exitX=1;exitY=0.5;exitDx=0;exitDy=0;" edge="1" parent="u_L2M56FNfiMDBvB7FRl-5" source="u_L2M56FNfiMDBvB7FRl-6" target="u_L2M56FNfiMDBvB7FRl-6">
          <mxGeometry relative="1" as="geometry" />
        </mxCell>
        <mxCell id="u_L2M56FNfiMDBvB7FRl-13" value="Courses" style="shape=table;startSize=30;container=1;collapsible=1;childLayout=tableLayout;fixedRows=1;rowLines=0;fontStyle=1;align=center;resizeLast=1;" vertex="1" parent="1">
          <mxGeometry x="510" y="470" width="250" height="190" as="geometry" />
        </mxCell>
        <mxCell id="u_L2M56FNfiMDBvB7FRl-14" value="" style="shape=partialRectangle;collapsible=0;dropTarget=0;pointerEvents=0;fillColor=none;points=[[0,0.5],[1,0.5]];portConstraint=eastwest;top=0;left=0;right=0;bottom=1;" vertex="1" parent="u_L2M56FNfiMDBvB7FRl-13">
          <mxGeometry y="30" width="250" height="30" as="geometry" />
        </mxCell>
        <mxCell id="u_L2M56FNfiMDBvB7FRl-15" value="PK" style="shape=partialRectangle;overflow=hidden;connectable=0;fillColor=none;top=0;left=0;bottom=0;right=0;fontStyle=1;" vertex="1" parent="u_L2M56FNfiMDBvB7FRl-14">
          <mxGeometry width="30" height="30" as="geometry">
            <mxRectangle width="30" height="30" as="alternateBounds" />
          </mxGeometry>
        </mxCell>
        <mxCell id="u_L2M56FNfiMDBvB7FRl-16" value="id" style="shape=partialRectangle;overflow=hidden;connectable=0;fillColor=none;top=0;left=0;bottom=0;right=0;align=left;spacingLeft=6;fontStyle=5;" vertex="1" parent="u_L2M56FNfiMDBvB7FRl-14">
          <mxGeometry x="30" width="220" height="30" as="geometry">
            <mxRectangle width="220" height="30" as="alternateBounds" />
          </mxGeometry>
        </mxCell>
        <mxCell id="u_L2M56FNfiMDBvB7FRl-17" value="" style="shape=partialRectangle;collapsible=0;dropTarget=0;pointerEvents=0;fillColor=none;points=[[0,0.5],[1,0.5]];portConstraint=eastwest;top=0;left=0;right=0;bottom=0;" vertex="1" parent="u_L2M56FNfiMDBvB7FRl-13">
          <mxGeometry y="60" width="250" height="30" as="geometry" />
        </mxCell>
        <mxCell id="u_L2M56FNfiMDBvB7FRl-18" value="FK" style="shape=partialRectangle;overflow=hidden;connectable=0;fillColor=none;top=0;left=0;bottom=0;right=0;" vertex="1" parent="u_L2M56FNfiMDBvB7FRl-17">
          <mxGeometry width="30" height="30" as="geometry">
            <mxRectangle width="30" height="30" as="alternateBounds" />
          </mxGeometry>
        </mxCell>
        <mxCell id="u_L2M56FNfiMDBvB7FRl-19" value="professor_id" style="shape=partialRectangle;overflow=hidden;connectable=0;fillColor=none;top=0;left=0;bottom=0;right=0;align=left;spacingLeft=6;" vertex="1" parent="u_L2M56FNfiMDBvB7FRl-17">
          <mxGeometry x="30" width="220" height="30" as="geometry">
            <mxRectangle width="220" height="30" as="alternateBounds" />
          </mxGeometry>
        </mxCell>
        <mxCell id="u_L2M56FNfiMDBvB7FRl-20" style="edgeStyle=orthogonalEdgeStyle;rounded=0;orthogonalLoop=1;jettySize=auto;html=1;exitX=1;exitY=0.5;exitDx=0;exitDy=0;" edge="1" parent="u_L2M56FNfiMDBvB7FRl-13" source="u_L2M56FNfiMDBvB7FRl-14" target="u_L2M56FNfiMDBvB7FRl-14">
          <mxGeometry relative="1" as="geometry" />
        </mxCell>
        <mxCell id="u_L2M56FNfiMDBvB7FRl-21" value="Group" style="shape=table;startSize=30;container=1;collapsible=1;childLayout=tableLayout;fixedRows=1;rowLines=0;fontStyle=1;align=center;resizeLast=1;" vertex="1" parent="1">
          <mxGeometry x="50" y="630" width="250" height="100" as="geometry" />
        </mxCell>
        <mxCell id="u_L2M56FNfiMDBvB7FRl-22" value="" style="shape=partialRectangle;collapsible=0;dropTarget=0;pointerEvents=0;fillColor=none;points=[[0,0.5],[1,0.5]];portConstraint=eastwest;top=0;left=0;right=0;bottom=1;" vertex="1" parent="u_L2M56FNfiMDBvB7FRl-21">
          <mxGeometry y="30" width="250" height="30" as="geometry" />
        </mxCell>
        <mxCell id="u_L2M56FNfiMDBvB7FRl-23" value="PK" style="shape=partialRectangle;overflow=hidden;connectable=0;fillColor=none;top=0;left=0;bottom=0;right=0;fontStyle=1;" vertex="1" parent="u_L2M56FNfiMDBvB7FRl-22">
          <mxGeometry width="30" height="30" as="geometry">
            <mxRectangle width="30" height="30" as="alternateBounds" />
          </mxGeometry>
        </mxCell>
        <mxCell id="u_L2M56FNfiMDBvB7FRl-24" value="id" style="shape=partialRectangle;overflow=hidden;connectable=0;fillColor=none;top=0;left=0;bottom=0;right=0;align=left;spacingLeft=6;fontStyle=5;" vertex="1" parent="u_L2M56FNfiMDBvB7FRl-22">
          <mxGeometry x="30" width="220" height="30" as="geometry">
            <mxRectangle width="220" height="30" as="alternateBounds" />
          </mxGeometry>
        </mxCell>
        <mxCell id="u_L2M56FNfiMDBvB7FRl-25" value="" style="shape=partialRectangle;collapsible=0;dropTarget=0;pointerEvents=0;fillColor=none;points=[[0,0.5],[1,0.5]];portConstraint=eastwest;top=0;left=0;right=0;bottom=0;" vertex="1" parent="u_L2M56FNfiMDBvB7FRl-21">
          <mxGeometry y="60" width="250" height="30" as="geometry" />
        </mxCell>
        <mxCell id="u_L2M56FNfiMDBvB7FRl-26" value="FK" style="shape=partialRectangle;overflow=hidden;connectable=0;fillColor=none;top=0;left=0;bottom=0;right=0;" vertex="1" parent="u_L2M56FNfiMDBvB7FRl-25">
          <mxGeometry width="30" height="30" as="geometry">
            <mxRectangle width="30" height="30" as="alternateBounds" />
          </mxGeometry>
        </mxCell>
        <mxCell id="u_L2M56FNfiMDBvB7FRl-27" value="representative_student_id" style="shape=partialRectangle;overflow=hidden;connectable=0;fillColor=none;top=0;left=0;bottom=0;right=0;align=left;spacingLeft=6;" vertex="1" parent="u_L2M56FNfiMDBvB7FRl-25">
          <mxGeometry x="30" width="220" height="30" as="geometry">
            <mxRectangle width="220" height="30" as="alternateBounds" />
          </mxGeometry>
        </mxCell>
        <mxCell id="u_L2M56FNfiMDBvB7FRl-28" style="edgeStyle=orthogonalEdgeStyle;rounded=0;orthogonalLoop=1;jettySize=auto;html=1;exitX=1;exitY=0.5;exitDx=0;exitDy=0;" edge="1" parent="u_L2M56FNfiMDBvB7FRl-21" source="u_L2M56FNfiMDBvB7FRl-22" target="u_L2M56FNfiMDBvB7FRl-22">
          <mxGeometry relative="1" as="geometry" />
        </mxCell>
        <mxCell id="u_L2M56FNfiMDBvB7FRl-38" style="edgeStyle=orthogonalEdgeStyle;rounded=0;orthogonalLoop=1;jettySize=auto;html=1;entryX=0;entryY=0.5;entryDx=0;entryDy=0;endArrow=none;endFill=0;" edge="1" parent="1" source="u_L2M56FNfiMDBvB7FRl-29" target="C-vyLk0tnHw3VtMMgP7b-27">
          <mxGeometry relative="1" as="geometry">
            <Array as="points">
              <mxPoint x="10" y="60" />
              <mxPoint x="10" y="215" />
            </Array>
          </mxGeometry>
        </mxCell>
        <mxCell id="u_L2M56FNfiMDBvB7FRl-47" value="One" style="edgeLabel;html=1;align=center;verticalAlign=middle;resizable=0;points=[];" vertex="1" connectable="0" parent="u_L2M56FNfiMDBvB7FRl-38">
          <mxGeometry x="-0.9227" y="4" relative="1" as="geometry">
            <mxPoint as="offset" />
          </mxGeometry>
        </mxCell>
        <mxCell id="u_L2M56FNfiMDBvB7FRl-48" value="To" style="edgeLabel;html=1;align=center;verticalAlign=middle;resizable=0;points=[];" vertex="1" connectable="0" parent="u_L2M56FNfiMDBvB7FRl-38">
          <mxGeometry x="0.1973" y="-1" relative="1" as="geometry">
            <mxPoint as="offset" />
          </mxGeometry>
        </mxCell>
        <mxCell id="u_L2M56FNfiMDBvB7FRl-49" value="Many" style="edgeLabel;html=1;align=center;verticalAlign=middle;resizable=0;points=[];" vertex="1" connectable="0" parent="u_L2M56FNfiMDBvB7FRl-38">
          <mxGeometry x="0.8688" relative="1" as="geometry">
            <mxPoint as="offset" />
          </mxGeometry>
        </mxCell>
        <mxCell id="u_L2M56FNfiMDBvB7FRl-29" value="School" style="shape=table;startSize=30;container=1;collapsible=1;childLayout=tableLayout;fixedRows=1;rowLines=0;fontStyle=1;align=center;resizeLast=1;" vertex="1" parent="1">
          <mxGeometry x="290" y="10" width="250" height="100" as="geometry" />
        </mxCell>
        <mxCell id="u_L2M56FNfiMDBvB7FRl-30" value="" style="shape=partialRectangle;collapsible=0;dropTarget=0;pointerEvents=0;fillColor=none;points=[[0,0.5],[1,0.5]];portConstraint=eastwest;top=0;left=0;right=0;bottom=1;" vertex="1" parent="u_L2M56FNfiMDBvB7FRl-29">
          <mxGeometry y="30" width="250" height="30" as="geometry" />
        </mxCell>
        <mxCell id="u_L2M56FNfiMDBvB7FRl-31" value="PK" style="shape=partialRectangle;overflow=hidden;connectable=0;fillColor=none;top=0;left=0;bottom=0;right=0;fontStyle=1;" vertex="1" parent="u_L2M56FNfiMDBvB7FRl-30">
          <mxGeometry width="30" height="30" as="geometry">
            <mxRectangle width="30" height="30" as="alternateBounds" />
          </mxGeometry>
        </mxCell>
        <mxCell id="u_L2M56FNfiMDBvB7FRl-32" value="id" style="shape=partialRectangle;overflow=hidden;connectable=0;fillColor=none;top=0;left=0;bottom=0;right=0;align=left;spacingLeft=6;fontStyle=5;" vertex="1" parent="u_L2M56FNfiMDBvB7FRl-30">
          <mxGeometry x="30" width="220" height="30" as="geometry">
            <mxRectangle width="220" height="30" as="alternateBounds" />
          </mxGeometry>
        </mxCell>
        <mxCell id="u_L2M56FNfiMDBvB7FRl-33" value="" style="shape=partialRectangle;collapsible=0;dropTarget=0;pointerEvents=0;fillColor=none;points=[[0,0.5],[1,0.5]];portConstraint=eastwest;top=0;left=0;right=0;bottom=0;" vertex="1" parent="u_L2M56FNfiMDBvB7FRl-29">
          <mxGeometry y="60" width="250" height="30" as="geometry" />
        </mxCell>
        <mxCell id="u_L2M56FNfiMDBvB7FRl-34" value="FK" style="shape=partialRectangle;overflow=hidden;connectable=0;fillColor=none;top=0;left=0;bottom=0;right=0;" vertex="1" parent="u_L2M56FNfiMDBvB7FRl-33">
          <mxGeometry width="30" height="30" as="geometry">
            <mxRectangle width="30" height="30" as="alternateBounds" />
          </mxGeometry>
        </mxCell>
        <mxCell id="u_L2M56FNfiMDBvB7FRl-35" value="" style="shape=partialRectangle;overflow=hidden;connectable=0;fillColor=none;top=0;left=0;bottom=0;right=0;align=left;spacingLeft=6;" vertex="1" parent="u_L2M56FNfiMDBvB7FRl-33">
          <mxGeometry x="30" width="220" height="30" as="geometry">
            <mxRectangle width="220" height="30" as="alternateBounds" />
          </mxGeometry>
        </mxCell>
        <mxCell id="u_L2M56FNfiMDBvB7FRl-36" style="edgeStyle=orthogonalEdgeStyle;rounded=0;orthogonalLoop=1;jettySize=auto;html=1;exitX=1;exitY=0.5;exitDx=0;exitDy=0;" edge="1" parent="u_L2M56FNfiMDBvB7FRl-29" source="u_L2M56FNfiMDBvB7FRl-30" target="u_L2M56FNfiMDBvB7FRl-30">
          <mxGeometry relative="1" as="geometry" />
        </mxCell>
        <mxCell id="u_L2M56FNfiMDBvB7FRl-40" style="edgeStyle=orthogonalEdgeStyle;rounded=0;orthogonalLoop=1;jettySize=auto;html=1;exitX=1;exitY=0.5;exitDx=0;exitDy=0;endArrow=none;endFill=0;" edge="1" parent="1" source="u_L2M56FNfiMDBvB7FRl-30" target="u_L2M56FNfiMDBvB7FRl-9">
          <mxGeometry relative="1" as="geometry">
            <Array as="points">
              <mxPoint x="790" y="55" />
              <mxPoint x="790" y="215" />
            </Array>
          </mxGeometry>
        </mxCell>
        <mxCell id="u_L2M56FNfiMDBvB7FRl-44" value="One" style="edgeLabel;html=1;align=center;verticalAlign=middle;resizable=0;points=[];" vertex="1" connectable="0" parent="u_L2M56FNfiMDBvB7FRl-40">
          <mxGeometry x="-0.86" y="-2" relative="1" as="geometry">
            <mxPoint as="offset" />
          </mxGeometry>
        </mxCell>
        <mxCell id="u_L2M56FNfiMDBvB7FRl-45" value="To" style="edgeLabel;html=1;align=center;verticalAlign=middle;resizable=0;points=[];" vertex="1" connectable="0" parent="u_L2M56FNfiMDBvB7FRl-40">
          <mxGeometry x="0.1745" y="3" relative="1" as="geometry">
            <mxPoint as="offset" />
          </mxGeometry>
        </mxCell>
        <mxCell id="u_L2M56FNfiMDBvB7FRl-46" value="Many" style="edgeLabel;html=1;align=center;verticalAlign=middle;resizable=0;points=[];" vertex="1" connectable="0" parent="u_L2M56FNfiMDBvB7FRl-40">
          <mxGeometry x="0.8964" relative="1" as="geometry">
            <mxPoint as="offset" />
          </mxGeometry>
        </mxCell>
        <mxCell id="u_L2M56FNfiMDBvB7FRl-50" style="edgeStyle=orthogonalEdgeStyle;rounded=0;orthogonalLoop=1;jettySize=auto;html=1;exitX=1;exitY=0.5;exitDx=0;exitDy=0;entryX=-0.006;entryY=0.86;entryDx=0;entryDy=0;entryPerimeter=0;endArrow=none;endFill=0;" edge="1" parent="1" source="C-vyLk0tnHw3VtMMgP7b-24" target="u_L2M56FNfiMDBvB7FRl-17">
          <mxGeometry relative="1" as="geometry" />
        </mxCell>
        <mxCell id="u_L2M56FNfiMDBvB7FRl-51" value="One" style="edgeLabel;html=1;align=center;verticalAlign=middle;resizable=0;points=[];" vertex="1" connectable="0" parent="u_L2M56FNfiMDBvB7FRl-50">
          <mxGeometry x="-0.9209" y="1" relative="1" as="geometry">
            <mxPoint as="offset" />
          </mxGeometry>
        </mxCell>
        <mxCell id="u_L2M56FNfiMDBvB7FRl-52" value="To" style="edgeLabel;html=1;align=center;verticalAlign=middle;resizable=0;points=[];" vertex="1" connectable="0" parent="u_L2M56FNfiMDBvB7FRl-50">
          <mxGeometry x="-0.3939" y="3" relative="1" as="geometry">
            <mxPoint as="offset" />
          </mxGeometry>
        </mxCell>
        <mxCell id="u_L2M56FNfiMDBvB7FRl-53" value="Many" style="edgeLabel;html=1;align=center;verticalAlign=middle;resizable=0;points=[];" vertex="1" connectable="0" parent="u_L2M56FNfiMDBvB7FRl-50">
          <mxGeometry x="0.8763" y="-3" relative="1" as="geometry">
            <mxPoint as="offset" />
          </mxGeometry>
        </mxCell>
        <mxCell id="u_L2M56FNfiMDBvB7FRl-55" value="student_course" style="shape=table;startSize=30;container=1;collapsible=1;childLayout=tableLayout;fixedRows=1;rowLines=0;fontStyle=1;align=center;resizeLast=1;" vertex="1" parent="1">
          <mxGeometry x="510" y="320" width="250" height="100" as="geometry" />
        </mxCell>
        <mxCell id="u_L2M56FNfiMDBvB7FRl-56" value="" style="shape=partialRectangle;collapsible=0;dropTarget=0;pointerEvents=0;fillColor=none;points=[[0,0.5],[1,0.5]];portConstraint=eastwest;top=0;left=0;right=0;bottom=1;" vertex="1" parent="u_L2M56FNfiMDBvB7FRl-55">
          <mxGeometry y="30" width="250" height="30" as="geometry" />
        </mxCell>
        <mxCell id="u_L2M56FNfiMDBvB7FRl-57" value="" style="shape=partialRectangle;overflow=hidden;connectable=0;fillColor=none;top=0;left=0;bottom=0;right=0;fontStyle=1;" vertex="1" parent="u_L2M56FNfiMDBvB7FRl-56">
          <mxGeometry width="30" height="30" as="geometry">
            <mxRectangle width="30" height="30" as="alternateBounds" />
          </mxGeometry>
        </mxCell>
        <mxCell id="u_L2M56FNfiMDBvB7FRl-58" value="student_id" style="shape=partialRectangle;overflow=hidden;connectable=0;fillColor=none;top=0;left=0;bottom=0;right=0;align=left;spacingLeft=6;fontStyle=5;" vertex="1" parent="u_L2M56FNfiMDBvB7FRl-56">
          <mxGeometry x="30" width="220" height="30" as="geometry">
            <mxRectangle width="220" height="30" as="alternateBounds" />
          </mxGeometry>
        </mxCell>
        <mxCell id="u_L2M56FNfiMDBvB7FRl-59" value="" style="shape=partialRectangle;collapsible=0;dropTarget=0;pointerEvents=0;fillColor=none;points=[[0,0.5],[1,0.5]];portConstraint=eastwest;top=0;left=0;right=0;bottom=0;" vertex="1" parent="u_L2M56FNfiMDBvB7FRl-55">
          <mxGeometry y="60" width="250" height="30" as="geometry" />
        </mxCell>
        <mxCell id="u_L2M56FNfiMDBvB7FRl-60" value="" style="shape=partialRectangle;overflow=hidden;connectable=0;fillColor=none;top=0;left=0;bottom=0;right=0;" vertex="1" parent="u_L2M56FNfiMDBvB7FRl-59">
          <mxGeometry width="30" height="30" as="geometry">
            <mxRectangle width="30" height="30" as="alternateBounds" />
          </mxGeometry>
        </mxCell>
        <mxCell id="u_L2M56FNfiMDBvB7FRl-61" value="courses_id" style="shape=partialRectangle;overflow=hidden;connectable=0;fillColor=none;top=0;left=0;bottom=0;right=0;align=left;spacingLeft=6;" vertex="1" parent="u_L2M56FNfiMDBvB7FRl-59">
          <mxGeometry x="30" width="220" height="30" as="geometry">
            <mxRectangle width="220" height="30" as="alternateBounds" />
          </mxGeometry>
        </mxCell>
        <mxCell id="u_L2M56FNfiMDBvB7FRl-62" style="edgeStyle=orthogonalEdgeStyle;rounded=0;orthogonalLoop=1;jettySize=auto;html=1;exitX=1;exitY=0.5;exitDx=0;exitDy=0;" edge="1" parent="u_L2M56FNfiMDBvB7FRl-55" source="u_L2M56FNfiMDBvB7FRl-56" target="u_L2M56FNfiMDBvB7FRl-56">
          <mxGeometry relative="1" as="geometry" />
        </mxCell>
        <mxCell id="u_L2M56FNfiMDBvB7FRl-67" style="edgeStyle=orthogonalEdgeStyle;rounded=0;orthogonalLoop=1;jettySize=auto;html=1;exitX=0;exitY=0.5;exitDx=0;exitDy=0;entryX=0;entryY=0.5;entryDx=0;entryDy=0;endArrow=none;endFill=0;" edge="1" parent="1" source="u_L2M56FNfiMDBvB7FRl-14" target="u_L2M56FNfiMDBvB7FRl-59">
          <mxGeometry relative="1" as="geometry" />
        </mxCell>
        <mxCell id="u_L2M56FNfiMDBvB7FRl-72" value="One" style="edgeLabel;html=1;align=center;verticalAlign=middle;resizable=0;points=[];" vertex="1" connectable="0" parent="u_L2M56FNfiMDBvB7FRl-67">
          <mxGeometry x="-0.7828" y="4" relative="1" as="geometry">
            <mxPoint as="offset" />
          </mxGeometry>
        </mxCell>
        <mxCell id="u_L2M56FNfiMDBvB7FRl-73" value="To" style="edgeLabel;html=1;align=center;verticalAlign=middle;resizable=0;points=[];" vertex="1" connectable="0" parent="u_L2M56FNfiMDBvB7FRl-67">
          <mxGeometry x="0.1133" y="-1" relative="1" as="geometry">
            <mxPoint as="offset" />
          </mxGeometry>
        </mxCell>
        <mxCell id="u_L2M56FNfiMDBvB7FRl-74" value="Text" style="edgeLabel;html=1;align=center;verticalAlign=middle;resizable=0;points=[];" vertex="1" connectable="0" parent="u_L2M56FNfiMDBvB7FRl-67">
          <mxGeometry x="0.7314" y="-1" relative="1" as="geometry">
            <mxPoint as="offset" />
          </mxGeometry>
        </mxCell>
        <mxCell id="u_L2M56FNfiMDBvB7FRl-68" style="edgeStyle=orthogonalEdgeStyle;rounded=0;orthogonalLoop=1;jettySize=auto;html=1;exitX=0;exitY=0.5;exitDx=0;exitDy=0;entryX=0;entryY=0.5;entryDx=0;entryDy=0;endArrow=none;endFill=0;" edge="1" parent="1" source="u_L2M56FNfiMDBvB7FRl-6" target="u_L2M56FNfiMDBvB7FRl-56">
          <mxGeometry relative="1" as="geometry">
            <Array as="points">
              <mxPoint x="460" y="185" />
              <mxPoint x="460" y="360" />
              <mxPoint x="510" y="360" />
            </Array>
          </mxGeometry>
        </mxCell>
        <mxCell id="u_L2M56FNfiMDBvB7FRl-69" value="One" style="edgeLabel;html=1;align=center;verticalAlign=middle;resizable=0;points=[];" vertex="1" connectable="0" parent="u_L2M56FNfiMDBvB7FRl-68">
          <mxGeometry x="-0.8111" y="-1" relative="1" as="geometry">
            <mxPoint as="offset" />
          </mxGeometry>
        </mxCell>
        <mxCell id="u_L2M56FNfiMDBvB7FRl-70" value="To" style="edgeLabel;html=1;align=center;verticalAlign=middle;resizable=0;points=[];" vertex="1" connectable="0" parent="u_L2M56FNfiMDBvB7FRl-68">
          <mxGeometry x="-0.4145" y="-1" relative="1" as="geometry">
            <mxPoint as="offset" />
          </mxGeometry>
        </mxCell>
        <mxCell id="u_L2M56FNfiMDBvB7FRl-71" value="Many" style="edgeLabel;html=1;align=center;verticalAlign=middle;resizable=0;points=[];" vertex="1" connectable="0" parent="u_L2M56FNfiMDBvB7FRl-68">
          <mxGeometry x="0.8111" y="3" relative="1" as="geometry">
            <mxPoint as="offset" />
          </mxGeometry>
        </mxCell>
        <mxCell id="u_L2M56FNfiMDBvB7FRl-82" style="edgeStyle=orthogonalEdgeStyle;rounded=0;orthogonalLoop=1;jettySize=auto;html=1;exitX=0;exitY=0.5;exitDx=0;exitDy=0;entryX=0;entryY=0.5;entryDx=0;entryDy=0;endArrow=none;endFill=0;" edge="1" parent="1" source="u_L2M56FNfiMDBvB7FRl-78" target="C-vyLk0tnHw3VtMMgP7b-24">
          <mxGeometry relative="1" as="geometry">
            <Array as="points">
              <mxPoint x="30" y="245" />
              <mxPoint x="30" y="185" />
            </Array>
          </mxGeometry>
        </mxCell>
        <mxCell id="u_L2M56FNfiMDBvB7FRl-83" value="One" style="edgeLabel;html=1;align=center;verticalAlign=middle;resizable=0;points=[];" vertex="1" connectable="0" parent="u_L2M56FNfiMDBvB7FRl-82">
          <mxGeometry x="0.6063" relative="1" as="geometry">
            <mxPoint as="offset" />
          </mxGeometry>
        </mxCell>
        <mxCell id="u_L2M56FNfiMDBvB7FRl-84" value="One" style="edgeLabel;html=1;align=center;verticalAlign=middle;resizable=0;points=[];" vertex="1" connectable="0" parent="u_L2M56FNfiMDBvB7FRl-82">
          <mxGeometry x="-0.6653" y="-4" relative="1" as="geometry">
            <mxPoint as="offset" />
          </mxGeometry>
        </mxCell>
        <mxCell id="u_L2M56FNfiMDBvB7FRl-78" value="" style="shape=partialRectangle;collapsible=0;dropTarget=0;pointerEvents=0;fillColor=none;points=[[0,0.5],[1,0.5]];portConstraint=eastwest;top=0;left=0;right=0;bottom=0;" vertex="1" parent="1">
          <mxGeometry x="80" y="230" width="250" height="30" as="geometry" />
        </mxCell>
        <mxCell id="u_L2M56FNfiMDBvB7FRl-79" value="" style="shape=partialRectangle;overflow=hidden;connectable=0;fillColor=none;top=0;left=0;bottom=0;right=0;" vertex="1" parent="u_L2M56FNfiMDBvB7FRl-78">
          <mxGeometry width="30" height="30" as="geometry">
            <mxRectangle width="30" height="30" as="alternateBounds" />
          </mxGeometry>
        </mxCell>
        <mxCell id="u_L2M56FNfiMDBvB7FRl-80" value="superviser_id" style="shape=partialRectangle;overflow=hidden;connectable=0;fillColor=none;top=0;left=0;bottom=0;right=0;align=left;spacingLeft=6;" vertex="1" parent="u_L2M56FNfiMDBvB7FRl-78">
          <mxGeometry x="30" width="220" height="30" as="geometry">
            <mxRectangle width="220" height="30" as="alternateBounds" />
          </mxGeometry>
        </mxCell>
        <mxCell id="u_L2M56FNfiMDBvB7FRl-86" value="group_id" style="shape=partialRectangle;overflow=hidden;connectable=0;fillColor=none;top=0;left=0;bottom=0;right=0;align=left;spacingLeft=6;" vertex="1" parent="1">
          <mxGeometry x="540" y="230" width="220" height="20" as="geometry">
            <mxRectangle width="220" height="30" as="alternateBounds" />
          </mxGeometry>
        </mxCell>
        <mxCell id="u_L2M56FNfiMDBvB7FRl-87" style="edgeStyle=orthogonalEdgeStyle;rounded=0;orthogonalLoop=1;jettySize=auto;html=1;exitX=1;exitY=0.5;exitDx=0;exitDy=0;entryX=0;entryY=0.75;entryDx=0;entryDy=0;endArrow=none;endFill=0;" edge="1" parent="1" source="u_L2M56FNfiMDBvB7FRl-22" target="u_L2M56FNfiMDBvB7FRl-5">
          <mxGeometry relative="1" as="geometry">
            <Array as="points">
              <mxPoint x="350" y="675" />
              <mxPoint x="350" y="245" />
            </Array>
          </mxGeometry>
        </mxCell>
        <mxCell id="u_L2M56FNfiMDBvB7FRl-88" value="One" style="edgeLabel;html=1;align=center;verticalAlign=middle;resizable=0;points=[];" vertex="1" connectable="0" parent="u_L2M56FNfiMDBvB7FRl-87">
          <mxGeometry x="-0.8761" relative="1" as="geometry">
            <mxPoint x="-10" as="offset" />
          </mxGeometry>
        </mxCell>
        <mxCell id="u_L2M56FNfiMDBvB7FRl-89" value="To" style="edgeLabel;html=1;align=center;verticalAlign=middle;resizable=0;points=[];" vertex="1" connectable="0" parent="u_L2M56FNfiMDBvB7FRl-87">
          <mxGeometry x="0.2308" y="1" relative="1" as="geometry">
            <mxPoint as="offset" />
          </mxGeometry>
        </mxCell>
        <mxCell id="u_L2M56FNfiMDBvB7FRl-90" value="Many" style="edgeLabel;html=1;align=center;verticalAlign=middle;resizable=0;points=[];" vertex="1" connectable="0" parent="u_L2M56FNfiMDBvB7FRl-87">
          <mxGeometry x="0.8836" y="-1" relative="1" as="geometry">
            <mxPoint as="offset" />
          </mxGeometry>
        </mxCell>
        <mxCell id="u_L2M56FNfiMDBvB7FRl-92" style="edgeStyle=orthogonalEdgeStyle;rounded=0;orthogonalLoop=1;jettySize=auto;html=1;exitX=1;exitY=0.5;exitDx=0;exitDy=0;entryX=1;entryY=0.5;entryDx=0;entryDy=0;endArrow=none;endFill=0;" edge="1" parent="1" source="u_L2M56FNfiMDBvB7FRl-6" target="u_L2M56FNfiMDBvB7FRl-25">
          <mxGeometry relative="1" as="geometry">
            <Array as="points">
              <mxPoint x="920" y="185" />
              <mxPoint x="920" y="705" />
            </Array>
          </mxGeometry>
        </mxCell>
        <mxCell id="u_L2M56FNfiMDBvB7FRl-93" value="One" style="edgeLabel;html=1;align=center;verticalAlign=middle;resizable=0;points=[];" vertex="1" connectable="0" parent="u_L2M56FNfiMDBvB7FRl-92">
          <mxGeometry x="-0.7904" y="-2" relative="1" as="geometry">
            <mxPoint x="-126" as="offset" />
          </mxGeometry>
        </mxCell>
        <mxCell id="u_L2M56FNfiMDBvB7FRl-94" value="To" style="edgeLabel;html=1;align=center;verticalAlign=middle;resizable=0;points=[];" vertex="1" connectable="0" parent="u_L2M56FNfiMDBvB7FRl-92">
          <mxGeometry x="0.0624" y="1" relative="1" as="geometry">
            <mxPoint as="offset" />
          </mxGeometry>
        </mxCell>
        <mxCell id="u_L2M56FNfiMDBvB7FRl-95" value="One" style="edgeLabel;html=1;align=center;verticalAlign=middle;resizable=0;points=[];" vertex="1" connectable="0" parent="u_L2M56FNfiMDBvB7FRl-92">
          <mxGeometry x="0.8949" y="-3" relative="1" as="geometry">
            <mxPoint as="offset" />
          </mxGeometry>
        </mxCell>
        <mxCell id="u_L2M56FNfiMDBvB7FRl-96" value="assistant_id" style="shape=partialRectangle;overflow=hidden;connectable=0;fillColor=none;top=0;left=0;bottom=0;right=0;align=left;spacingLeft=6;" vertex="1" parent="1">
          <mxGeometry x="540" y="570" width="220" height="20" as="geometry">
            <mxRectangle width="220" height="30" as="alternateBounds" />
          </mxGeometry>
        </mxCell>
        <mxCell id="u_L2M56FNfiMDBvB7FRl-97" style="edgeStyle=orthogonalEdgeStyle;rounded=0;orthogonalLoop=1;jettySize=auto;html=1;exitX=1;exitY=0.5;exitDx=0;exitDy=0;endArrow=none;endFill=0;" edge="1" parent="1" source="C-vyLk0tnHw3VtMMgP7b-24">
          <mxGeometry relative="1" as="geometry">
            <mxPoint x="510" y="590" as="targetPoint" />
            <Array as="points">
              <mxPoint x="330" y="200" />
              <mxPoint x="380" y="200" />
              <mxPoint x="380" y="590" />
            </Array>
          </mxGeometry>
        </mxCell>
        <mxCell id="u_L2M56FNfiMDBvB7FRl-98" value="One" style="edgeLabel;html=1;align=center;verticalAlign=middle;resizable=0;points=[];" vertex="1" connectable="0" parent="u_L2M56FNfiMDBvB7FRl-97">
          <mxGeometry x="-0.8775" y="3" relative="1" as="geometry">
            <mxPoint x="1" as="offset" />
          </mxGeometry>
        </mxCell>
        <mxCell id="u_L2M56FNfiMDBvB7FRl-99" value="Many" style="edgeLabel;html=1;align=center;verticalAlign=middle;resizable=0;points=[];" vertex="1" connectable="0" parent="u_L2M56FNfiMDBvB7FRl-97">
          <mxGeometry x="0.818" y="1" relative="1" as="geometry">
            <mxPoint as="offset" />
          </mxGeometry>
        </mxCell>
        <mxCell id="u_L2M56FNfiMDBvB7FRl-100" value="To" style="edgeLabel;html=1;align=center;verticalAlign=middle;resizable=0;points=[];" vertex="1" connectable="0" parent="u_L2M56FNfiMDBvB7FRl-97">
          <mxGeometry x="0.1205" y="-3" relative="1" as="geometry">
            <mxPoint y="-1" as="offset" />
          </mxGeometry>
        </mxCell>
        <mxCell id="u_L2M56FNfiMDBvB7FRl-101" value="Review" style="shape=table;startSize=30;container=1;collapsible=1;childLayout=tableLayout;fixedRows=1;rowLines=0;fontStyle=1;align=center;resizeLast=1;" vertex="1" parent="1">
          <mxGeometry x="50" y="390" width="250" height="150" as="geometry" />
        </mxCell>
        <mxCell id="u_L2M56FNfiMDBvB7FRl-102" value="" style="shape=partialRectangle;collapsible=0;dropTarget=0;pointerEvents=0;fillColor=none;points=[[0,0.5],[1,0.5]];portConstraint=eastwest;top=0;left=0;right=0;bottom=1;" vertex="1" parent="u_L2M56FNfiMDBvB7FRl-101">
          <mxGeometry y="30" width="250" height="30" as="geometry" />
        </mxCell>
        <mxCell id="u_L2M56FNfiMDBvB7FRl-103" value="PK" style="shape=partialRectangle;overflow=hidden;connectable=0;fillColor=none;top=0;left=0;bottom=0;right=0;fontStyle=1;" vertex="1" parent="u_L2M56FNfiMDBvB7FRl-102">
          <mxGeometry width="30" height="30" as="geometry">
            <mxRectangle width="30" height="30" as="alternateBounds" />
          </mxGeometry>
        </mxCell>
        <mxCell id="u_L2M56FNfiMDBvB7FRl-104" value="id" style="shape=partialRectangle;overflow=hidden;connectable=0;fillColor=none;top=0;left=0;bottom=0;right=0;align=left;spacingLeft=6;fontStyle=5;" vertex="1" parent="u_L2M56FNfiMDBvB7FRl-102">
          <mxGeometry x="30" width="220" height="30" as="geometry">
            <mxRectangle width="220" height="30" as="alternateBounds" />
          </mxGeometry>
        </mxCell>
        <mxCell id="u_L2M56FNfiMDBvB7FRl-105" value="" style="shape=partialRectangle;collapsible=0;dropTarget=0;pointerEvents=0;fillColor=none;points=[[0,0.5],[1,0.5]];portConstraint=eastwest;top=0;left=0;right=0;bottom=0;" vertex="1" parent="u_L2M56FNfiMDBvB7FRl-101">
          <mxGeometry y="60" width="250" height="30" as="geometry" />
        </mxCell>
        <mxCell id="u_L2M56FNfiMDBvB7FRl-106" value="FK" style="shape=partialRectangle;overflow=hidden;connectable=0;fillColor=none;top=0;left=0;bottom=0;right=0;" vertex="1" parent="u_L2M56FNfiMDBvB7FRl-105">
          <mxGeometry width="30" height="30" as="geometry">
            <mxRectangle width="30" height="30" as="alternateBounds" />
          </mxGeometry>
        </mxCell>
        <mxCell id="u_L2M56FNfiMDBvB7FRl-107" value="professor_id" style="shape=partialRectangle;overflow=hidden;connectable=0;fillColor=none;top=0;left=0;bottom=0;right=0;align=left;spacingLeft=6;" vertex="1" parent="u_L2M56FNfiMDBvB7FRl-105">
          <mxGeometry x="30" width="220" height="30" as="geometry">
            <mxRectangle width="220" height="30" as="alternateBounds" />
          </mxGeometry>
        </mxCell>
        <mxCell id="u_L2M56FNfiMDBvB7FRl-108" style="edgeStyle=orthogonalEdgeStyle;rounded=0;orthogonalLoop=1;jettySize=auto;html=1;exitX=1;exitY=0.5;exitDx=0;exitDy=0;" edge="1" parent="u_L2M56FNfiMDBvB7FRl-101" source="u_L2M56FNfiMDBvB7FRl-102" target="u_L2M56FNfiMDBvB7FRl-102">
          <mxGeometry relative="1" as="geometry" />
        </mxCell>
        <mxCell id="u_L2M56FNfiMDBvB7FRl-110" value="course_id" style="shape=partialRectangle;overflow=hidden;connectable=0;fillColor=none;top=0;left=0;bottom=0;right=0;align=left;spacingLeft=6;" vertex="1" parent="1">
          <mxGeometry x="80" y="480" width="220" height="30" as="geometry">
            <mxRectangle width="220" height="30" as="alternateBounds" />
          </mxGeometry>
        </mxCell>
        <mxCell id="u_L2M56FNfiMDBvB7FRl-111" value="student_id" style="shape=partialRectangle;overflow=hidden;connectable=0;fillColor=none;top=0;left=0;bottom=0;right=0;align=left;spacingLeft=6;" vertex="1" parent="1">
          <mxGeometry x="80" y="510" width="220" height="30" as="geometry">
            <mxRectangle width="220" height="30" as="alternateBounds" />
          </mxGeometry>
        </mxCell>
        <mxCell id="u_L2M56FNfiMDBvB7FRl-112" style="edgeStyle=orthogonalEdgeStyle;rounded=0;orthogonalLoop=1;jettySize=auto;html=1;exitX=1;exitY=0.5;exitDx=0;exitDy=0;entryX=0;entryY=0.75;entryDx=0;entryDy=0;endArrow=none;endFill=0;" edge="1" parent="1" source="u_L2M56FNfiMDBvB7FRl-14" target="u_L2M56FNfiMDBvB7FRl-101">
          <mxGeometry relative="1" as="geometry">
            <mxPoint x="830" y="590" as="targetPoint" />
            <Array as="points">
              <mxPoint x="800" y="515" />
              <mxPoint x="800" y="790" />
              <mxPoint x="30" y="790" />
              <mxPoint x="30" y="503" />
            </Array>
          </mxGeometry>
        </mxCell>
        <mxCell id="u_L2M56FNfiMDBvB7FRl-113" value="One" style="edgeLabel;html=1;align=center;verticalAlign=middle;resizable=0;points=[];" vertex="1" connectable="0" parent="u_L2M56FNfiMDBvB7FRl-112">
          <mxGeometry x="-0.9756" y="-3" relative="1" as="geometry">
            <mxPoint as="offset" />
          </mxGeometry>
        </mxCell>
        <mxCell id="u_L2M56FNfiMDBvB7FRl-114" value="To" style="edgeLabel;html=1;align=center;verticalAlign=middle;resizable=0;points=[];" vertex="1" connectable="0" parent="u_L2M56FNfiMDBvB7FRl-112">
          <mxGeometry x="0.0145" y="3" relative="1" as="geometry">
            <mxPoint as="offset" />
          </mxGeometry>
        </mxCell>
        <mxCell id="u_L2M56FNfiMDBvB7FRl-116" value="Many" style="edgeLabel;html=1;align=center;verticalAlign=middle;resizable=0;points=[];" vertex="1" connectable="0" parent="u_L2M56FNfiMDBvB7FRl-112">
          <mxGeometry x="0.9718" y="3" relative="1" as="geometry">
            <mxPoint as="offset" />
          </mxGeometry>
        </mxCell>
        <mxCell id="u_L2M56FNfiMDBvB7FRl-117" style="edgeStyle=orthogonalEdgeStyle;rounded=0;orthogonalLoop=1;jettySize=auto;html=1;exitX=0;exitY=0.5;exitDx=0;exitDy=0;endArrow=none;endFill=0;" edge="1" parent="1" source="u_L2M56FNfiMDBvB7FRl-6">
          <mxGeometry relative="1" as="geometry">
            <mxPoint x="300" y="530" as="targetPoint" />
            <Array as="points">
              <mxPoint x="440" y="185" />
              <mxPoint x="440" y="460" />
              <mxPoint x="340" y="460" />
              <mxPoint x="340" y="530" />
            </Array>
          </mxGeometry>
        </mxCell>
        <mxCell id="u_L2M56FNfiMDBvB7FRl-118" value="Many" style="edgeLabel;html=1;align=center;verticalAlign=middle;resizable=0;points=[];" vertex="1" connectable="0" parent="u_L2M56FNfiMDBvB7FRl-117">
          <mxGeometry x="0.9147" y="3" relative="1" as="geometry">
            <mxPoint as="offset" />
          </mxGeometry>
        </mxCell>
        <mxCell id="u_L2M56FNfiMDBvB7FRl-119" style="edgeStyle=orthogonalEdgeStyle;rounded=0;orthogonalLoop=1;jettySize=auto;html=1;exitX=0;exitY=0.5;exitDx=0;exitDy=0;entryX=0;entryY=0.5;entryDx=0;entryDy=0;endArrow=none;endFill=0;" edge="1" parent="1" source="C-vyLk0tnHw3VtMMgP7b-24" target="u_L2M56FNfiMDBvB7FRl-105">
          <mxGeometry relative="1" as="geometry">
            <Array as="points">
              <mxPoint x="-50" y="185" />
              <mxPoint x="-50" y="465" />
            </Array>
          </mxGeometry>
        </mxCell>
        <mxCell id="u_L2M56FNfiMDBvB7FRl-120" value="Many" style="edgeLabel;html=1;align=center;verticalAlign=middle;resizable=0;points=[];" vertex="1" connectable="0" parent="u_L2M56FNfiMDBvB7FRl-119">
          <mxGeometry x="0.8614" y="7" relative="1" as="geometry">
            <mxPoint x="5" y="7" as="offset" />
          </mxGeometry>
        </mxCell>
        <mxCell id="u_L2M56FNfiMDBvB7FRl-121" value="certificate_id" style="shape=partialRectangle;overflow=hidden;connectable=0;fillColor=none;top=0;left=0;bottom=0;right=0;align=left;spacingLeft=6;" vertex="1" parent="1">
          <mxGeometry x="540" y="610" width="220" height="20" as="geometry">
            <mxRectangle width="220" height="30" as="alternateBounds" />
          </mxGeometry>
        </mxCell>
        <mxCell id="u_L2M56FNfiMDBvB7FRl-122" value="Certificate" style="shape=table;startSize=30;container=1;collapsible=1;childLayout=tableLayout;fixedRows=1;rowLines=0;fontStyle=1;align=center;resizeLast=1;" vertex="1" parent="1">
          <mxGeometry x="1000" y="330" width="250" height="140" as="geometry" />
        </mxCell>
        <mxCell id="u_L2M56FNfiMDBvB7FRl-123" value="" style="shape=partialRectangle;collapsible=0;dropTarget=0;pointerEvents=0;fillColor=none;points=[[0,0.5],[1,0.5]];portConstraint=eastwest;top=0;left=0;right=0;bottom=1;" vertex="1" parent="u_L2M56FNfiMDBvB7FRl-122">
          <mxGeometry y="30" width="250" height="30" as="geometry" />
        </mxCell>
        <mxCell id="u_L2M56FNfiMDBvB7FRl-124" value="" style="shape=partialRectangle;overflow=hidden;connectable=0;fillColor=none;top=0;left=0;bottom=0;right=0;fontStyle=1;" vertex="1" parent="u_L2M56FNfiMDBvB7FRl-123">
          <mxGeometry width="30" height="30" as="geometry">
            <mxRectangle width="30" height="30" as="alternateBounds" />
          </mxGeometry>
        </mxCell>
        <mxCell id="u_L2M56FNfiMDBvB7FRl-125" value="id" style="shape=partialRectangle;overflow=hidden;connectable=0;fillColor=none;top=0;left=0;bottom=0;right=0;align=left;spacingLeft=6;fontStyle=5;" vertex="1" parent="u_L2M56FNfiMDBvB7FRl-123">
          <mxGeometry x="30" width="220" height="30" as="geometry">
            <mxRectangle width="220" height="30" as="alternateBounds" />
          </mxGeometry>
        </mxCell>
        <mxCell id="u_L2M56FNfiMDBvB7FRl-126" value="" style="shape=partialRectangle;collapsible=0;dropTarget=0;pointerEvents=0;fillColor=none;points=[[0,0.5],[1,0.5]];portConstraint=eastwest;top=0;left=0;right=0;bottom=0;" vertex="1" parent="u_L2M56FNfiMDBvB7FRl-122">
          <mxGeometry y="60" width="250" height="30" as="geometry" />
        </mxCell>
        <mxCell id="u_L2M56FNfiMDBvB7FRl-127" value="" style="shape=partialRectangle;overflow=hidden;connectable=0;fillColor=none;top=0;left=0;bottom=0;right=0;" vertex="1" parent="u_L2M56FNfiMDBvB7FRl-126">
          <mxGeometry width="30" height="30" as="geometry">
            <mxRectangle width="30" height="30" as="alternateBounds" />
          </mxGeometry>
        </mxCell>
        <mxCell id="u_L2M56FNfiMDBvB7FRl-128" value="" style="shape=partialRectangle;overflow=hidden;connectable=0;fillColor=none;top=0;left=0;bottom=0;right=0;align=left;spacingLeft=6;" vertex="1" parent="u_L2M56FNfiMDBvB7FRl-126">
          <mxGeometry x="30" width="220" height="30" as="geometry">
            <mxRectangle width="220" height="30" as="alternateBounds" />
          </mxGeometry>
        </mxCell>
        <mxCell id="u_L2M56FNfiMDBvB7FRl-129" style="edgeStyle=orthogonalEdgeStyle;rounded=0;orthogonalLoop=1;jettySize=auto;html=1;exitX=1;exitY=0.5;exitDx=0;exitDy=0;" edge="1" parent="u_L2M56FNfiMDBvB7FRl-122" source="u_L2M56FNfiMDBvB7FRl-123" target="u_L2M56FNfiMDBvB7FRl-123">
          <mxGeometry relative="1" as="geometry" />
        </mxCell>
        <mxCell id="u_L2M56FNfiMDBvB7FRl-130" style="edgeStyle=orthogonalEdgeStyle;rounded=0;orthogonalLoop=1;jettySize=auto;html=1;exitX=0;exitY=0.5;exitDx=0;exitDy=0;endArrow=none;endFill=0;" edge="1" parent="1" source="u_L2M56FNfiMDBvB7FRl-123">
          <mxGeometry relative="1" as="geometry">
            <mxPoint x="760" y="630" as="targetPoint" />
            <Array as="points">
              <mxPoint x="960" y="375" />
              <mxPoint x="960" y="630" />
            </Array>
          </mxGeometry>
        </mxCell>
        <mxCell id="u_L2M56FNfiMDBvB7FRl-131" value="One" style="edgeLabel;html=1;align=center;verticalAlign=middle;resizable=0;points=[];" vertex="1" connectable="0" parent="u_L2M56FNfiMDBvB7FRl-130">
          <mxGeometry x="-0.8976" y="-4" relative="1" as="geometry">
            <mxPoint as="offset" />
          </mxGeometry>
        </mxCell>
        <mxCell id="u_L2M56FNfiMDBvB7FRl-132" value="To" style="edgeLabel;html=1;align=center;verticalAlign=middle;resizable=0;points=[];" vertex="1" connectable="0" parent="u_L2M56FNfiMDBvB7FRl-130">
          <mxGeometry x="-0.0195" y="3" relative="1" as="geometry">
            <mxPoint y="-1" as="offset" />
          </mxGeometry>
        </mxCell>
        <mxCell id="u_L2M56FNfiMDBvB7FRl-133" value="One" style="edgeLabel;html=1;align=center;verticalAlign=middle;resizable=0;points=[];" vertex="1" connectable="0" parent="u_L2M56FNfiMDBvB7FRl-130">
          <mxGeometry x="0.934" y="4" relative="1" as="geometry">
            <mxPoint as="offset" />
          </mxGeometry>
        </mxCell>
        <mxCell id="u_L2M56FNfiMDBvB7FRl-137" value="" style="shape=partialRectangle;collapsible=0;dropTarget=0;pointerEvents=0;fillColor=none;points=[[0,0.5],[1,0.5]];portConstraint=eastwest;top=0;left=0;right=0;bottom=0;" vertex="1" parent="1">
          <mxGeometry x="1000" y="420" width="250" height="30" as="geometry" />
        </mxCell>
        <mxCell id="u_L2M56FNfiMDBvB7FRl-138" value="" style="shape=partialRectangle;overflow=hidden;connectable=0;fillColor=none;top=0;left=0;bottom=0;right=0;" vertex="1" parent="u_L2M56FNfiMDBvB7FRl-137">
          <mxGeometry width="30" height="30" as="geometry">
            <mxRectangle width="30" height="30" as="alternateBounds" />
          </mxGeometry>
        </mxCell>
        <mxCell id="u_L2M56FNfiMDBvB7FRl-139" value="" style="shape=partialRectangle;overflow=hidden;connectable=0;fillColor=none;top=0;left=0;bottom=0;right=0;align=left;spacingLeft=6;" vertex="1" parent="u_L2M56FNfiMDBvB7FRl-137">
          <mxGeometry x="30" width="220" height="30" as="geometry">
            <mxRectangle width="220" height="30" as="alternateBounds" />
          </mxGeometry>
        </mxCell>
        <mxCell id="u_L2M56FNfiMDBvB7FRl-140" value="student_certificate" style="shape=table;startSize=30;container=1;collapsible=1;childLayout=tableLayout;fixedRows=1;rowLines=0;fontStyle=1;align=center;resizeLast=1;" vertex="1" parent="1">
          <mxGeometry x="1010" y="100" width="250" height="140" as="geometry" />
        </mxCell>
        <mxCell id="u_L2M56FNfiMDBvB7FRl-141" value="" style="shape=partialRectangle;collapsible=0;dropTarget=0;pointerEvents=0;fillColor=none;points=[[0,0.5],[1,0.5]];portConstraint=eastwest;top=0;left=0;right=0;bottom=1;" vertex="1" parent="u_L2M56FNfiMDBvB7FRl-140">
          <mxGeometry y="30" width="250" height="30" as="geometry" />
        </mxCell>
        <mxCell id="u_L2M56FNfiMDBvB7FRl-142" value="" style="shape=partialRectangle;overflow=hidden;connectable=0;fillColor=none;top=0;left=0;bottom=0;right=0;fontStyle=1;" vertex="1" parent="u_L2M56FNfiMDBvB7FRl-141">
          <mxGeometry width="30" height="30" as="geometry">
            <mxRectangle width="30" height="30" as="alternateBounds" />
          </mxGeometry>
        </mxCell>
        <mxCell id="u_L2M56FNfiMDBvB7FRl-143" value="certificate_id" style="shape=partialRectangle;overflow=hidden;connectable=0;fillColor=none;top=0;left=0;bottom=0;right=0;align=left;spacingLeft=6;fontStyle=5;" vertex="1" parent="u_L2M56FNfiMDBvB7FRl-141">
          <mxGeometry x="30" width="220" height="30" as="geometry">
            <mxRectangle width="220" height="30" as="alternateBounds" />
          </mxGeometry>
        </mxCell>
        <mxCell id="u_L2M56FNfiMDBvB7FRl-144" value="" style="shape=partialRectangle;collapsible=0;dropTarget=0;pointerEvents=0;fillColor=none;points=[[0,0.5],[1,0.5]];portConstraint=eastwest;top=0;left=0;right=0;bottom=0;" vertex="1" parent="u_L2M56FNfiMDBvB7FRl-140">
          <mxGeometry y="60" width="250" height="30" as="geometry" />
        </mxCell>
        <mxCell id="u_L2M56FNfiMDBvB7FRl-145" value="" style="shape=partialRectangle;overflow=hidden;connectable=0;fillColor=none;top=0;left=0;bottom=0;right=0;" vertex="1" parent="u_L2M56FNfiMDBvB7FRl-144">
          <mxGeometry width="30" height="30" as="geometry">
            <mxRectangle width="30" height="30" as="alternateBounds" />
          </mxGeometry>
        </mxCell>
        <mxCell id="u_L2M56FNfiMDBvB7FRl-146" value="student_id" style="shape=partialRectangle;overflow=hidden;connectable=0;fillColor=none;top=0;left=0;bottom=0;right=0;align=left;spacingLeft=6;" vertex="1" parent="u_L2M56FNfiMDBvB7FRl-144">
          <mxGeometry x="30" width="220" height="30" as="geometry">
            <mxRectangle width="220" height="30" as="alternateBounds" />
          </mxGeometry>
        </mxCell>
        <mxCell id="u_L2M56FNfiMDBvB7FRl-147" style="edgeStyle=orthogonalEdgeStyle;rounded=0;orthogonalLoop=1;jettySize=auto;html=1;exitX=1;exitY=0.5;exitDx=0;exitDy=0;" edge="1" parent="u_L2M56FNfiMDBvB7FRl-140" source="u_L2M56FNfiMDBvB7FRl-141" target="u_L2M56FNfiMDBvB7FRl-141">
          <mxGeometry relative="1" as="geometry" />
        </mxCell>
        <mxCell id="u_L2M56FNfiMDBvB7FRl-148" style="edgeStyle=orthogonalEdgeStyle;rounded=0;orthogonalLoop=1;jettySize=auto;html=1;entryX=1;entryY=0.5;entryDx=0;entryDy=0;endArrow=none;endFill=0;" edge="1" parent="1" source="u_L2M56FNfiMDBvB7FRl-123" target="u_L2M56FNfiMDBvB7FRl-141">
          <mxGeometry relative="1" as="geometry">
            <Array as="points">
              <mxPoint x="1390" y="375" />
              <mxPoint x="1390" y="145" />
            </Array>
          </mxGeometry>
        </mxCell>
        <mxCell id="u_L2M56FNfiMDBvB7FRl-153" value="One" style="edgeLabel;html=1;align=center;verticalAlign=middle;resizable=0;points=[];" vertex="1" connectable="0" parent="u_L2M56FNfiMDBvB7FRl-148">
          <mxGeometry x="-0.9013" relative="1" as="geometry">
            <mxPoint as="offset" />
          </mxGeometry>
        </mxCell>
        <mxCell id="u_L2M56FNfiMDBvB7FRl-154" value="To" style="edgeLabel;html=1;align=center;verticalAlign=middle;resizable=0;points=[];" vertex="1" connectable="0" parent="u_L2M56FNfiMDBvB7FRl-148">
          <mxGeometry x="0.08" y="-3" relative="1" as="geometry">
            <mxPoint as="offset" />
          </mxGeometry>
        </mxCell>
        <mxCell id="u_L2M56FNfiMDBvB7FRl-155" value="Many" style="edgeLabel;html=1;align=center;verticalAlign=middle;resizable=0;points=[];" vertex="1" connectable="0" parent="u_L2M56FNfiMDBvB7FRl-148">
          <mxGeometry x="0.8413" y="-3" relative="1" as="geometry">
            <mxPoint as="offset" />
          </mxGeometry>
        </mxCell>
        <mxCell id="u_L2M56FNfiMDBvB7FRl-149" style="edgeStyle=orthogonalEdgeStyle;rounded=0;orthogonalLoop=1;jettySize=auto;html=1;entryX=0;entryY=0.5;entryDx=0;entryDy=0;exitX=1;exitY=0.5;exitDx=0;exitDy=0;endArrow=none;endFill=0;" edge="1" parent="1" source="u_L2M56FNfiMDBvB7FRl-6" target="u_L2M56FNfiMDBvB7FRl-144">
          <mxGeometry relative="1" as="geometry">
            <Array as="points">
              <mxPoint x="760" y="175" />
            </Array>
          </mxGeometry>
        </mxCell>
        <mxCell id="u_L2M56FNfiMDBvB7FRl-150" value="One" style="edgeLabel;html=1;align=center;verticalAlign=middle;resizable=0;points=[];" vertex="1" connectable="0" parent="u_L2M56FNfiMDBvB7FRl-149">
          <mxGeometry x="-0.852" relative="1" as="geometry">
            <mxPoint as="offset" />
          </mxGeometry>
        </mxCell>
        <mxCell id="u_L2M56FNfiMDBvB7FRl-151" value="To" style="edgeLabel;html=1;align=center;verticalAlign=middle;resizable=0;points=[];" vertex="1" connectable="0" parent="u_L2M56FNfiMDBvB7FRl-149">
          <mxGeometry x="0.0715" relative="1" as="geometry">
            <mxPoint as="offset" />
          </mxGeometry>
        </mxCell>
        <mxCell id="u_L2M56FNfiMDBvB7FRl-152" value="Many" style="edgeLabel;html=1;align=center;verticalAlign=middle;resizable=0;points=[];" vertex="1" connectable="0" parent="u_L2M56FNfiMDBvB7FRl-149">
          <mxGeometry x="0.8773" y="1" relative="1" as="geometry">
            <mxPoint as="offset" />
          </mxGeometry>
        </mxCell>
      </root>
    </mxGraphModel>
  </diagram>
</mxfile>
